%FSLAX34Y34*%
%MOMM*%
%LNSOLDERMASK_TOP*%
G71*
G01*
%ADD10R, 2.70X1.79*%
%ADD11R, 1.50X1.60*%
%ADD12R, 1.60X1.50*%
%ADD13C, 2.00*%
%ADD14C, 2.64*%
%ADD15C, 2.60*%
%ADD16R, 1.80X1.50*%
%ADD17R, 1.50X1.80*%
%LPD*%
X102394Y-19050D02*
G54D10*
D03*
X102791Y-44847D02*
G54D10*
D03*
X102791Y-70247D02*
G54D10*
D03*
X102791Y-70247D02*
G54D10*
D03*
X103188Y-96044D02*
G54D10*
D03*
X103188Y-121444D02*
G54D10*
D03*
X102791Y-121444D02*
G54D10*
D03*
X103188Y-147241D02*
G54D10*
D03*
X103188Y-172641D02*
G54D10*
D03*
X103188Y-172641D02*
G54D10*
D03*
X103584Y-198438D02*
G54D10*
D03*
X281384Y-19050D02*
G54D10*
D03*
X281781Y-44847D02*
G54D10*
D03*
X281781Y-70247D02*
G54D10*
D03*
X281781Y-70247D02*
G54D10*
D03*
X282178Y-96044D02*
G54D10*
D03*
X282178Y-121444D02*
G54D10*
D03*
X281781Y-121444D02*
G54D10*
D03*
X282178Y-147241D02*
G54D10*
D03*
X282178Y-172641D02*
G54D10*
D03*
X282178Y-172641D02*
G54D10*
D03*
X282575Y-198438D02*
G54D10*
D03*
X321469Y-174228D02*
G54D11*
D03*
X340469Y-174228D02*
G54D11*
D03*
X347241Y-126231D02*
G54D12*
D03*
X347241Y-145231D02*
G54D12*
D03*
X325590Y-46160D02*
G54D13*
D03*
X338288Y-58859D02*
G54D13*
D03*
X325588Y-71559D02*
G54D13*
D03*
X392112Y-17462D02*
G54D14*
D03*
X392110Y-42860D02*
G54D14*
D03*
X41850Y-200465D02*
G54D15*
D03*
X16454Y-175061D02*
G54D15*
D03*
X41854Y-149661D02*
G54D15*
D03*
X344041Y-18257D02*
G54D11*
D03*
X325041Y-18257D02*
G54D11*
D03*
X369862Y-179412D02*
G54D16*
D03*
X369862Y-198412D02*
G54D16*
D03*
X376188Y-77787D02*
G54D17*
D03*
X357188Y-77788D02*
G54D17*
D03*
X328562Y-96837D02*
G54D17*
D03*
X309562Y-96838D02*
G54D17*
D03*
X319090Y-128590D02*
G54D14*
D03*
X71017Y-170631D02*
G54D12*
D03*
X71017Y-151631D02*
G54D12*
D03*
X68462Y-96956D02*
G54D14*
D03*
X68462Y-71556D02*
G54D14*
D03*
X68460Y-46160D02*
G54D14*
D03*
X68462Y-20756D02*
G54D14*
D03*
M02*
