%FSLAX34Y34*%
%MOMM*%
%LNCOPPER_BOTTOM*%
G71*
G01*
%ADD10C, 0.15*%
%ADD11C, 0.18*%
%ADD12C, 0.09*%
%ADD13C, 0.20*%
%ADD14C, 0.13*%
%LPD*%
G54D10*
X311969Y-184228D02*
X311969Y-164228D01*
X349969Y-164228D01*
X349969Y-184228D01*
X311969Y-184228D01*
G54D10*
X337241Y-116731D02*
X357241Y-116731D01*
X357241Y-154731D01*
X337241Y-154731D01*
X337241Y-116731D01*
G54D11*
X245812Y-12368D02*
X237278Y-12368D01*
X237278Y-18591D01*
X238345Y-18591D01*
X240478Y-17702D01*
X242612Y-17702D01*
X244745Y-18591D01*
X245812Y-20368D01*
X245812Y-23924D01*
X244745Y-25702D01*
X242612Y-26591D01*
X240478Y-26591D01*
X238345Y-25702D01*
X237278Y-23924D01*
G54D11*
X249722Y-12368D02*
X255056Y-26591D01*
X260389Y-12368D01*
G54D11*
X231176Y-45276D02*
X235443Y-45276D01*
X235443Y-49721D01*
X234376Y-51499D01*
X232243Y-52388D01*
X230110Y-52388D01*
X227976Y-51499D01*
X226910Y-49721D01*
X226910Y-40832D01*
X227976Y-39054D01*
X230110Y-38165D01*
X232243Y-38165D01*
X234376Y-39054D01*
X235443Y-40832D01*
G54D11*
X239354Y-52388D02*
X239354Y-38165D01*
X247887Y-52388D01*
X247887Y-38165D01*
G54D11*
X251798Y-52388D02*
X251798Y-38165D01*
X257131Y-38165D01*
X259264Y-39054D01*
X260331Y-40832D01*
X260331Y-49721D01*
X259264Y-51499D01*
X257131Y-52388D01*
X251798Y-52388D01*
G54D11*
X224776Y-65835D02*
X225842Y-64057D01*
X227976Y-63168D01*
X230109Y-63168D01*
X232242Y-64057D01*
X233309Y-65835D01*
X233309Y-67613D01*
X232242Y-69391D01*
X230109Y-70280D01*
X232242Y-71168D01*
X233309Y-72946D01*
X233309Y-74724D01*
X232242Y-76502D01*
X230109Y-77391D01*
X227976Y-77391D01*
X225842Y-76502D01*
X224776Y-74724D01*
G54D11*
X237220Y-63168D02*
X242553Y-77391D01*
X247886Y-63168D01*
G54D11*
X251798Y-65835D02*
X252864Y-64057D01*
X254998Y-63168D01*
X257131Y-63168D01*
X259264Y-64057D01*
X260331Y-65835D01*
X260331Y-67613D01*
X259264Y-69391D01*
X257131Y-70280D01*
X259264Y-71168D01*
X260331Y-72946D01*
X260331Y-74724D01*
X259264Y-76502D01*
X257131Y-77391D01*
X254998Y-77391D01*
X252864Y-76502D01*
X251798Y-74724D01*
G54D11*
X237220Y-205978D02*
X242553Y-191756D01*
X247886Y-205978D01*
G54D11*
X239353Y-200645D02*
X245753Y-200645D01*
G54D11*
X260331Y-194423D02*
X260331Y-203311D01*
X259265Y-205089D01*
X257131Y-205978D01*
X254998Y-205978D01*
X252865Y-205089D01*
X251798Y-203311D01*
X251798Y-194423D01*
X252865Y-192645D01*
X254998Y-191756D01*
X257131Y-191756D01*
X259265Y-192645D01*
X260331Y-194423D01*
G54D11*
X240420Y-179388D02*
X245753Y-165165D01*
X251086Y-179388D01*
G54D11*
X242553Y-174054D02*
X248953Y-174054D01*
G54D11*
X254998Y-170499D02*
X260331Y-165165D01*
X260331Y-179388D01*
G54D11*
X237220Y-153988D02*
X242553Y-139765D01*
X247886Y-153988D01*
G54D11*
X239353Y-148654D02*
X245753Y-148654D01*
G54D11*
X260331Y-153988D02*
X251798Y-153988D01*
X251798Y-153099D01*
X252864Y-151321D01*
X259264Y-145988D01*
X260331Y-144210D01*
X260331Y-142432D01*
X259264Y-140654D01*
X257131Y-139765D01*
X254998Y-139765D01*
X252864Y-140654D01*
X251798Y-142432D01*
G54D11*
X237220Y-128588D02*
X242553Y-114365D01*
X247886Y-128588D01*
G54D11*
X239353Y-123254D02*
X245753Y-123254D01*
G54D11*
X251798Y-117032D02*
X252864Y-115254D01*
X254998Y-114365D01*
X257131Y-114365D01*
X259264Y-115254D01*
X260331Y-117032D01*
X260331Y-118810D01*
X259264Y-120588D01*
X257131Y-121476D01*
X259264Y-122365D01*
X260331Y-124143D01*
X260331Y-125921D01*
X259264Y-127699D01*
X257131Y-128588D01*
X254998Y-128588D01*
X252864Y-127699D01*
X251798Y-125921D01*
G54D11*
X237339Y-103188D02*
X242672Y-88965D01*
X248006Y-103188D01*
G54D11*
X239472Y-97854D02*
X245872Y-97854D01*
G54D11*
X258317Y-103188D02*
X258317Y-88965D01*
X251917Y-97854D01*
X251917Y-99632D01*
X260450Y-99632D01*
G54D11*
X131512Y-12368D02*
X122978Y-12368D01*
X122978Y-18591D01*
X124045Y-18591D01*
X126178Y-17702D01*
X128312Y-17702D01*
X130445Y-18591D01*
X131512Y-20368D01*
X131512Y-23924D01*
X130445Y-25702D01*
X128312Y-26591D01*
X126178Y-26591D01*
X124045Y-25702D01*
X122978Y-23924D01*
G54D11*
X131512Y-40435D02*
X130445Y-38657D01*
X128312Y-37768D01*
X126178Y-37768D01*
X124045Y-38657D01*
X122978Y-40435D01*
X122978Y-44880D01*
X122978Y-45768D01*
X126178Y-43991D01*
X128312Y-43991D01*
X130445Y-44880D01*
X131512Y-46657D01*
X131512Y-49324D01*
X130445Y-51102D01*
X128312Y-51991D01*
X126178Y-51991D01*
X124045Y-51102D01*
X122978Y-49324D01*
X122978Y-44880D01*
G54D11*
X122859Y-63168D02*
X131392Y-63168D01*
X130326Y-64946D01*
X128192Y-67613D01*
X126059Y-71168D01*
X124992Y-73835D01*
X124992Y-77391D01*
G54D11*
X128312Y-95680D02*
X126178Y-95680D01*
X124045Y-94791D01*
X122978Y-93013D01*
X122978Y-91235D01*
X124045Y-89457D01*
X126178Y-88568D01*
X128312Y-88568D01*
X130445Y-89457D01*
X131512Y-91235D01*
X131512Y-93013D01*
X130445Y-94791D01*
X128312Y-95680D01*
X130445Y-96568D01*
X131512Y-98346D01*
X131512Y-100124D01*
X130445Y-101902D01*
X128312Y-102791D01*
X126178Y-102791D01*
X124045Y-101902D01*
X122978Y-100124D01*
X122978Y-98346D01*
X124045Y-96568D01*
X126178Y-95680D01*
G54D11*
X122978Y-125524D02*
X124045Y-127302D01*
X126178Y-128191D01*
X128312Y-128191D01*
X130445Y-127302D01*
X131512Y-125524D01*
X131512Y-121080D01*
X131512Y-120191D01*
X128312Y-121968D01*
X126178Y-121968D01*
X124045Y-121080D01*
X122978Y-119302D01*
X122978Y-116635D01*
X124045Y-114857D01*
X126178Y-113968D01*
X128312Y-113968D01*
X130445Y-114857D01*
X131512Y-116635D01*
X131512Y-121080D01*
G54D11*
X122948Y-144702D02*
X128282Y-139368D01*
X128282Y-153591D01*
G54D11*
X140726Y-142035D02*
X140726Y-150924D01*
X139659Y-152702D01*
X137526Y-153591D01*
X135392Y-153591D01*
X133259Y-152702D01*
X132192Y-150924D01*
X132192Y-142035D01*
X133259Y-140257D01*
X135392Y-139368D01*
X137526Y-139368D01*
X139659Y-140257D01*
X140726Y-142035D01*
G54D11*
X131512Y-178991D02*
X122978Y-178991D01*
X122978Y-178102D01*
X124045Y-176324D01*
X130445Y-170991D01*
X131512Y-169213D01*
X131512Y-167435D01*
X130445Y-165657D01*
X128312Y-164768D01*
X126178Y-164768D01*
X124045Y-165657D01*
X122978Y-167435D01*
G54D11*
X143956Y-167435D02*
X143956Y-176324D01*
X142889Y-178102D01*
X140756Y-178991D01*
X138622Y-178991D01*
X136489Y-178102D01*
X135422Y-176324D01*
X135422Y-167435D01*
X136489Y-165657D01*
X138622Y-164768D01*
X140756Y-164768D01*
X142889Y-165657D01*
X143956Y-167435D01*
G54D11*
X131512Y-204391D02*
X122978Y-204391D01*
X122978Y-203502D01*
X124045Y-201724D01*
X130445Y-196391D01*
X131512Y-194613D01*
X131512Y-192835D01*
X130445Y-191057D01*
X128312Y-190168D01*
X126178Y-190168D01*
X124045Y-191057D01*
X122978Y-192835D01*
G54D11*
X135422Y-195502D02*
X140756Y-190168D01*
X140756Y-204391D01*
G54D11*
X204570Y-160031D02*
X204570Y-167498D01*
X190348Y-167498D01*
X190348Y-160031D01*
G54D11*
X197459Y-167498D02*
X197459Y-160031D01*
G54D11*
X201903Y-156120D02*
X203681Y-155053D01*
X204570Y-152920D01*
X204570Y-150787D01*
X203681Y-148653D01*
X201903Y-147587D01*
X200125Y-147587D01*
X198348Y-148653D01*
X197459Y-150787D01*
X197459Y-152920D01*
X196570Y-155053D01*
X194792Y-156120D01*
X193014Y-156120D01*
X191236Y-155053D01*
X190348Y-152920D01*
X190348Y-150787D01*
X191236Y-148653D01*
X193014Y-147587D01*
G54D11*
X204570Y-143676D02*
X190348Y-143676D01*
X190348Y-138343D01*
X191236Y-136209D01*
X193014Y-135143D01*
X194792Y-135143D01*
X196570Y-136209D01*
X197459Y-138343D01*
X197459Y-143676D01*
G54D11*
X193014Y-131232D02*
X191236Y-130165D01*
X190348Y-128032D01*
X190348Y-125899D01*
X191236Y-123765D01*
X193014Y-122699D01*
X194792Y-122699D01*
X196570Y-123765D01*
X197459Y-125899D01*
X198348Y-123765D01*
X200125Y-122699D01*
X201903Y-122699D01*
X203681Y-123765D01*
X204570Y-125899D01*
X204570Y-128032D01*
X203681Y-130165D01*
X201903Y-131232D01*
G54D11*
X204570Y-110255D02*
X204570Y-118788D01*
X203681Y-118788D01*
X201903Y-117721D01*
X196570Y-111321D01*
X194792Y-110255D01*
X193014Y-110255D01*
X191236Y-111321D01*
X190348Y-113455D01*
X190348Y-115588D01*
X191236Y-117721D01*
X193014Y-118788D01*
G54D11*
X201903Y-97811D02*
X203681Y-98877D01*
X204570Y-101011D01*
X204570Y-103144D01*
X203681Y-105277D01*
X201903Y-106344D01*
X193014Y-106344D01*
X191236Y-105277D01*
X190348Y-103144D01*
X190348Y-101011D01*
X191236Y-98877D01*
X193014Y-97811D01*
G54D11*
X193014Y-93900D02*
X191236Y-92833D01*
X190348Y-90700D01*
X190348Y-88567D01*
X191236Y-86433D01*
X193014Y-85367D01*
X194792Y-85367D01*
X196570Y-86433D01*
X197459Y-88567D01*
X198348Y-86433D01*
X200125Y-85367D01*
X201903Y-85367D01*
X203681Y-86433D01*
X204570Y-88567D01*
X204570Y-90700D01*
X203681Y-92833D01*
X201903Y-93900D01*
G54D11*
X204570Y-77332D02*
X190348Y-77332D01*
X199236Y-71999D01*
X190348Y-66665D01*
X204570Y-66665D01*
G54D11*
X204570Y-62754D02*
X196570Y-62754D01*
G54D11*
X193903Y-62754D02*
X193903Y-62754D01*
G54D11*
X204570Y-58843D02*
X196570Y-58843D01*
G54D11*
X198348Y-58843D02*
X197103Y-57776D01*
X196570Y-55643D01*
X197103Y-53510D01*
X198348Y-52443D01*
X204570Y-52443D01*
G54D11*
X204570Y-48532D02*
X196570Y-48532D01*
G54D11*
X193903Y-48532D02*
X193903Y-48532D01*
G54D10*
X324888Y-38259D02*
X316888Y-38259D01*
X316888Y-79459D01*
X324888Y-79459D01*
G54D10*
G75*
G01X324788Y-79559D02*
G03X324788Y-38159I0J20700D01*
G01*
G54D12*
X310888Y-40259D02*
X310888Y-42459D01*
X308588Y-42459D01*
X307688Y-41859D01*
X307288Y-40859D01*
X307288Y-39759D01*
X307688Y-38659D01*
X308588Y-38159D01*
X313088Y-38159D01*
X313988Y-38659D01*
X314388Y-39759D01*
X314388Y-40859D01*
X313988Y-41859D01*
X313088Y-42459D01*
G54D12*
X307288Y-44459D02*
X314388Y-44459D01*
X307288Y-48759D01*
X314388Y-48759D01*
G54D12*
X307288Y-50759D02*
X314388Y-50759D01*
X314388Y-53459D01*
X313988Y-54459D01*
X313088Y-55059D01*
X308588Y-55059D01*
X307688Y-54459D01*
X307288Y-53459D01*
X307288Y-50759D01*
G54D12*
X347788Y-55759D02*
X354888Y-55759D01*
G54D12*
X347788Y-57759D02*
X354888Y-57759D01*
X347788Y-62059D01*
X354888Y-62059D01*
G54D12*
X313088Y-67959D02*
X308588Y-67959D01*
X307688Y-67359D01*
X307288Y-66359D01*
X307288Y-65259D01*
X307688Y-64159D01*
X308588Y-63659D01*
X313088Y-63659D01*
X313988Y-64159D01*
X314388Y-65259D01*
X314388Y-66359D01*
X313988Y-67359D01*
X313088Y-67959D01*
G54D12*
X314388Y-69959D02*
X308588Y-69959D01*
X307688Y-70459D01*
X307288Y-71559D01*
X307288Y-72659D01*
X307688Y-73659D01*
X308588Y-74259D01*
X314388Y-74259D01*
G54D12*
X307288Y-78359D02*
X314388Y-78359D01*
G54D12*
X314388Y-76259D02*
X314388Y-80559D01*
G54D13*
X385812Y-4821D02*
X379512Y-11121D01*
X379512Y-23921D01*
X385812Y-30221D01*
X398612Y-30221D01*
X404912Y-23921D01*
X404912Y-11121D01*
X398612Y-4821D01*
X385812Y-4821D01*
G54D13*
X385812Y-30221D02*
X379512Y-36521D01*
X379512Y-49321D01*
X385812Y-55621D01*
X398612Y-55621D01*
X404912Y-49321D01*
X404912Y-36521D01*
X398612Y-30221D01*
X385812Y-30221D01*
G54D10*
X51354Y-213161D02*
X26354Y-213161D01*
X6354Y-193161D01*
X6354Y-158161D01*
X26354Y-138161D01*
X51354Y-138161D01*
X51354Y-213161D01*
G54D10*
X353541Y-8257D02*
X353541Y-28257D01*
X315541Y-28257D01*
X315541Y-8257D01*
X353541Y-8257D01*
G54D10*
X358862Y-169913D02*
X380862Y-169912D01*
X380862Y-207912D01*
X358862Y-207913D01*
X358862Y-169913D01*
G54D14*
X372439Y-142734D02*
X372439Y-149134D01*
X371772Y-149134D01*
X370439Y-148334D01*
X366439Y-143534D01*
X365106Y-142734D01*
X363772Y-142734D01*
X362439Y-143534D01*
X361772Y-145134D01*
X361772Y-146734D01*
X362439Y-148334D01*
X363772Y-149134D01*
G54D14*
X363772Y-133401D02*
X370439Y-133401D01*
X371772Y-134201D01*
X372439Y-135801D01*
X372439Y-137401D01*
X371772Y-139001D01*
X370439Y-139801D01*
X363772Y-139801D01*
X362439Y-139001D01*
X361772Y-137401D01*
X361772Y-135801D01*
X362439Y-134201D01*
X363772Y-133401D01*
G54D14*
X363772Y-124068D02*
X370439Y-124068D01*
X371772Y-124868D01*
X372439Y-126468D01*
X372439Y-128068D01*
X371772Y-129668D01*
X370439Y-130468D01*
X363772Y-130468D01*
X362439Y-129668D01*
X361772Y-128068D01*
X361772Y-126468D01*
X362439Y-124868D01*
X363772Y-124068D01*
G54D14*
X372439Y-121135D02*
X361772Y-121135D01*
G54D14*
X368439Y-118735D02*
X372439Y-116335D01*
G54D14*
X369772Y-121135D02*
X366439Y-116335D01*
G54D14*
X313478Y-194549D02*
X317478Y-190549D01*
X317478Y-201216D01*
G54D14*
X326811Y-192549D02*
X326811Y-199216D01*
X326011Y-200549D01*
X324411Y-201216D01*
X322811Y-201216D01*
X321211Y-200549D01*
X320411Y-199216D01*
X320411Y-192549D01*
X321211Y-191216D01*
X322811Y-190549D01*
X324411Y-190549D01*
X326011Y-191216D01*
X326811Y-192549D01*
G54D14*
X336144Y-192549D02*
X336144Y-199216D01*
X335344Y-200549D01*
X333744Y-201216D01*
X332144Y-201216D01*
X330544Y-200549D01*
X329744Y-199216D01*
X329744Y-192549D01*
X330544Y-191216D01*
X332144Y-190549D01*
X333744Y-190549D01*
X335344Y-191216D01*
X336144Y-192549D01*
G54D14*
X339077Y-201216D02*
X339077Y-190549D01*
G54D14*
X341477Y-197216D02*
X343877Y-201216D01*
G54D14*
X339077Y-198549D02*
X343877Y-195216D01*
G54D14*
X388993Y-207444D02*
X384993Y-203444D01*
X395659Y-203444D01*
G54D14*
X386993Y-194111D02*
X393659Y-194111D01*
X394993Y-194911D01*
X395659Y-196511D01*
X395659Y-198111D01*
X394993Y-199711D01*
X393659Y-200511D01*
X386993Y-200511D01*
X385659Y-199711D01*
X384993Y-198111D01*
X384993Y-196511D01*
X385659Y-194911D01*
X386993Y-194111D01*
G54D14*
X386993Y-184778D02*
X393659Y-184778D01*
X394993Y-185578D01*
X395659Y-187178D01*
X395659Y-188778D01*
X394993Y-190378D01*
X393659Y-191178D01*
X386993Y-191178D01*
X385659Y-190378D01*
X384993Y-188778D01*
X384993Y-187178D01*
X385659Y-185578D01*
X386993Y-184778D01*
G54D14*
X395659Y-181845D02*
X389659Y-181845D01*
G54D14*
X390993Y-181845D02*
X390059Y-181045D01*
X389659Y-179445D01*
X390059Y-177845D01*
X390993Y-177045D01*
X395659Y-177045D01*
G54D14*
X395659Y-174112D02*
X384993Y-174112D01*
X384993Y-168512D01*
G54D14*
X390326Y-174112D02*
X390326Y-168512D01*
G54D14*
X393846Y-156314D02*
X383180Y-156315D01*
X389846Y-152315D01*
X383180Y-148314D01*
X393846Y-148315D01*
G54D14*
X391846Y-138982D02*
X393180Y-139782D01*
X393846Y-141382D01*
X393846Y-142982D01*
X393180Y-144581D01*
X391846Y-145382D01*
X385180Y-145382D01*
X383846Y-144582D01*
X383180Y-142981D01*
X383180Y-141382D01*
X383846Y-139782D01*
X385180Y-138982D01*
G54D14*
X393846Y-136049D02*
X383180Y-136049D01*
X383180Y-132049D01*
X383846Y-130449D01*
X385180Y-129648D01*
X386513Y-129649D01*
X387846Y-130449D01*
X388513Y-132049D01*
X388513Y-136049D01*
G54D14*
X387180Y-126716D02*
X383180Y-122716D01*
X393846Y-122715D01*
G54D14*
X383180Y-119783D02*
X383180Y-113383D01*
X384513Y-114182D01*
X386513Y-115783D01*
X389180Y-117383D01*
X391180Y-118182D01*
X393846Y-118182D01*
G54D14*
X385180Y-104050D02*
X391846Y-104050D01*
X393180Y-104850D01*
X393846Y-106450D01*
X393846Y-108050D01*
X393180Y-109650D01*
X391846Y-110450D01*
X385180Y-110450D01*
X383846Y-109650D01*
X383180Y-108050D01*
X383180Y-106450D01*
X383846Y-104849D01*
X385180Y-104050D01*
G54D14*
X385180Y-94717D02*
X391846Y-94717D01*
X393180Y-95516D01*
X393846Y-97117D01*
X393846Y-98717D01*
X393180Y-100317D01*
X391846Y-101116D01*
X385180Y-101116D01*
X383846Y-100316D01*
X383180Y-98717D01*
X383180Y-97117D01*
X383846Y-95516D01*
X385180Y-94717D01*
G54D10*
X385687Y-66787D02*
X385688Y-88788D01*
X347688Y-88788D01*
X347687Y-66787D01*
X385687Y-66787D01*
G54D14*
X392168Y-86794D02*
X388168Y-82794D01*
X398834Y-82794D01*
G54D14*
X392834Y-75061D02*
X398834Y-75061D01*
G54D14*
X397501Y-75061D02*
X398568Y-75861D01*
X398834Y-77461D01*
X398568Y-79061D01*
X397501Y-79861D01*
X392834Y-79861D01*
G54D14*
X398834Y-72128D02*
X388168Y-72128D01*
X388168Y-66528D01*
G54D14*
X393501Y-72128D02*
X393501Y-66528D01*
G54D10*
X338062Y-85837D02*
X338063Y-107838D01*
X300063Y-107838D01*
X300062Y-85837D01*
X338062Y-85837D01*
G54D13*
X312788Y-115946D02*
X306488Y-122246D01*
X306488Y-135046D01*
X312788Y-141346D01*
X325588Y-141346D01*
X331888Y-135046D01*
X331888Y-122246D01*
X325588Y-115946D01*
X312788Y-115946D01*
G54D14*
X340974Y-97492D02*
X344974Y-93492D01*
X344974Y-104159D01*
G54D14*
X352707Y-98159D02*
X352707Y-104159D01*
G54D14*
X352707Y-102826D02*
X351907Y-103892D01*
X350307Y-104159D01*
X348707Y-103892D01*
X347907Y-102826D01*
X347907Y-98159D01*
G54D14*
X355640Y-104159D02*
X355640Y-93492D01*
X361240Y-93492D01*
G54D14*
X355640Y-98826D02*
X361240Y-98826D01*
G54D14*
X351628Y-33799D02*
X351628Y-40466D01*
X350828Y-41799D01*
X349228Y-42466D01*
X347628Y-42466D01*
X346028Y-41799D01*
X345228Y-40466D01*
X345228Y-33799D01*
X346028Y-32466D01*
X347628Y-31799D01*
X349228Y-31799D01*
X350828Y-32466D01*
X351628Y-33799D01*
G54D14*
X354561Y-42466D02*
X354561Y-31799D01*
G54D14*
X356961Y-38466D02*
X359361Y-42466D01*
G54D14*
X354561Y-39799D02*
X359361Y-36466D01*
G54D14*
X368694Y-33799D02*
X368694Y-40466D01*
X367894Y-41799D01*
X366294Y-42466D01*
X364694Y-42466D01*
X363094Y-41799D01*
X362294Y-40466D01*
X362294Y-33799D01*
X363094Y-32466D01*
X364694Y-31799D01*
X366294Y-31799D01*
X367894Y-32466D01*
X368694Y-33799D01*
G54D10*
X81017Y-180131D02*
X61017Y-180131D01*
X61017Y-142131D01*
X81017Y-142131D01*
X81017Y-180131D01*
G54D13*
X74762Y-109597D02*
X81062Y-103297D01*
X81062Y-90497D01*
X74762Y-84197D01*
X61962Y-84197D01*
X55662Y-90497D01*
X55662Y-103297D01*
X61962Y-109597D01*
X74762Y-109597D01*
G54D13*
X74762Y-84197D02*
X81062Y-77897D01*
X81062Y-65097D01*
X74762Y-58797D01*
X61962Y-58797D01*
X55662Y-65097D01*
X55662Y-77897D01*
X61962Y-84197D01*
X74762Y-84197D01*
G54D13*
X74762Y-58797D02*
X81062Y-52497D01*
X81062Y-39697D01*
X74762Y-33397D01*
X61962Y-33397D01*
X55662Y-39697D01*
X55662Y-52497D01*
X61962Y-58797D01*
X74762Y-58797D01*
G54D13*
X74762Y-33397D02*
X81062Y-27097D01*
X81062Y-14297D01*
X74762Y-7997D01*
X61962Y-7997D01*
X55662Y-14297D01*
X55662Y-27097D01*
X61962Y-33397D01*
X74762Y-33397D01*
G54D14*
X73989Y-201484D02*
X63322Y-201484D01*
X69989Y-206284D01*
X71322Y-206284D01*
X71322Y-199884D01*
G54D14*
X73989Y-196951D02*
X63322Y-196951D01*
G54D14*
X69989Y-194551D02*
X73989Y-192151D01*
G54D14*
X71322Y-196951D02*
X67989Y-192151D01*
G54D14*
X63322Y-189218D02*
X63322Y-182818D01*
X64656Y-183618D01*
X66656Y-185218D01*
X69322Y-186818D01*
X71322Y-187618D01*
X73989Y-187618D01*
G54D11*
X15804Y-100124D02*
X16871Y-101902D01*
X19004Y-102791D01*
X21138Y-102791D01*
X23271Y-101902D01*
X24338Y-100124D01*
X24338Y-98346D01*
X23271Y-96568D01*
X21138Y-95680D01*
X19004Y-95680D01*
X16871Y-94791D01*
X15804Y-93013D01*
X15804Y-91235D01*
X16871Y-89457D01*
X19004Y-88568D01*
X21138Y-88568D01*
X23271Y-89457D01*
X24338Y-91235D01*
G54D11*
X28248Y-102791D02*
X28248Y-88568D01*
X33582Y-88568D01*
X35715Y-89457D01*
X36782Y-91235D01*
X36782Y-100124D01*
X35715Y-101902D01*
X33582Y-102791D01*
X28248Y-102791D01*
G54D11*
X40692Y-102791D02*
X46026Y-88568D01*
X51359Y-102791D01*
G54D11*
X42826Y-97457D02*
X49226Y-97457D01*
G54D11*
X19066Y-74724D02*
X20133Y-76502D01*
X22266Y-77391D01*
X24400Y-77391D01*
X26533Y-76502D01*
X27600Y-74724D01*
X27600Y-72946D01*
X26533Y-71168D01*
X24400Y-70280D01*
X22266Y-70280D01*
X20133Y-69391D01*
X19066Y-67613D01*
X19066Y-65835D01*
X20133Y-64057D01*
X22266Y-63168D01*
X24400Y-63168D01*
X26533Y-64057D01*
X27600Y-65835D01*
G54D11*
X40044Y-74724D02*
X38977Y-76502D01*
X36844Y-77391D01*
X34710Y-77391D01*
X32577Y-76502D01*
X31510Y-74724D01*
X31510Y-65835D01*
X32577Y-64057D01*
X34710Y-63168D01*
X36844Y-63168D01*
X38977Y-64057D01*
X40044Y-65835D01*
G54D11*
X43954Y-63168D02*
X43954Y-77391D01*
X51421Y-77391D01*
G54D11*
X22147Y-44880D02*
X26414Y-44880D01*
X26414Y-49324D01*
X25347Y-51102D01*
X23214Y-51991D01*
X21080Y-51991D01*
X18947Y-51102D01*
X17880Y-49324D01*
X17880Y-40435D01*
X18947Y-38657D01*
X21080Y-37768D01*
X23214Y-37768D01*
X25347Y-38657D01*
X26414Y-40435D01*
G54D11*
X30324Y-51991D02*
X30324Y-37768D01*
X38858Y-51991D01*
X38858Y-37768D01*
G54D11*
X42768Y-51991D02*
X42768Y-37768D01*
X48102Y-37768D01*
X50235Y-38657D01*
X51302Y-40435D01*
X51302Y-49324D01*
X50235Y-51102D01*
X48102Y-51991D01*
X42768Y-51991D01*
G54D11*
X11853Y-12368D02*
X17186Y-26591D01*
X22520Y-12368D01*
G54D11*
X32831Y-24457D02*
X32831Y-20902D01*
X31764Y-19124D01*
X29631Y-18591D01*
X27498Y-19124D01*
X26431Y-20902D01*
X26431Y-24457D01*
X27498Y-26235D01*
X29631Y-26591D01*
X31764Y-26235D01*
X32831Y-24457D01*
G54D11*
X43142Y-18591D02*
X43142Y-26591D01*
G54D11*
X43142Y-24813D02*
X42076Y-26235D01*
X39942Y-26591D01*
X37809Y-26235D01*
X36742Y-24813D01*
X36742Y-18591D01*
G54D11*
X49186Y-12368D02*
X49186Y-25702D01*
X50253Y-26591D01*
X51320Y-26235D01*
G54D11*
X47053Y-18591D02*
X51320Y-18591D01*
G54D14*
X15028Y-131366D02*
X15028Y-120699D01*
X19028Y-120699D01*
X20628Y-121366D01*
X21428Y-122699D01*
X21428Y-129366D01*
X20628Y-130699D01*
X19028Y-131366D01*
X15028Y-131366D01*
G54D14*
X24361Y-129366D02*
X25161Y-130699D01*
X26761Y-131366D01*
X28361Y-131366D01*
X29961Y-130699D01*
X30761Y-129366D01*
X30761Y-128032D01*
X29961Y-126699D01*
X28361Y-126032D01*
X26761Y-126032D01*
X25161Y-125366D01*
X24361Y-124032D01*
X24361Y-122699D01*
X25161Y-121366D01*
X26761Y-120699D01*
X28361Y-120699D01*
X29961Y-121366D01*
X30761Y-122699D01*
G54D14*
X33694Y-124699D02*
X37694Y-120699D01*
X37694Y-131366D01*
G54D14*
X44627Y-126032D02*
X43027Y-126032D01*
X41427Y-125366D01*
X40627Y-124032D01*
X40627Y-122699D01*
X41427Y-121366D01*
X43027Y-120699D01*
X44627Y-120699D01*
X46227Y-121366D01*
X47027Y-122699D01*
X47027Y-124032D01*
X46227Y-125366D01*
X44627Y-126032D01*
X46227Y-126699D01*
X47027Y-128032D01*
X47027Y-129366D01*
X46227Y-130699D01*
X44627Y-131366D01*
X43027Y-131366D01*
X41427Y-130699D01*
X40627Y-129366D01*
X40627Y-128032D01*
X41427Y-126699D01*
X43027Y-126032D01*
G54D14*
X49960Y-131366D02*
X49960Y-120699D01*
X53960Y-120699D01*
X55560Y-121366D01*
X56360Y-122699D01*
X56360Y-124032D01*
X55560Y-125366D01*
X53960Y-126032D01*
X55560Y-126699D01*
X56360Y-128032D01*
X56360Y-129366D01*
X55560Y-130699D01*
X53960Y-131366D01*
X49960Y-131366D01*
G54D14*
X49960Y-126032D02*
X53960Y-126032D01*
G54D14*
X65693Y-131366D02*
X59293Y-131366D01*
X59293Y-130699D01*
X60093Y-129366D01*
X64893Y-125366D01*
X65693Y-124032D01*
X65693Y-122699D01*
X64893Y-121366D01*
X63293Y-120699D01*
X61693Y-120699D01*
X60093Y-121366D01*
X59293Y-122699D01*
G54D14*
X75026Y-122699D02*
X75026Y-129366D01*
X74226Y-130699D01*
X72626Y-131366D01*
X71026Y-131366D01*
X69426Y-130699D01*
X68626Y-129366D01*
X68626Y-122699D01*
X69426Y-121366D01*
X71026Y-120699D01*
X72626Y-120699D01*
X74226Y-121366D01*
X75026Y-122699D01*
M02*
