%FSLAX34Y34*%
%MOMM*%
%LNSILK_TOP*%
G71*
G01*
%ADD10C, 1.40*%
%ADD11C, 2.04*%
%ADD12C, 2.00*%
%ADD13C, 0.40*%
%ADD14C, 0.20*%
%LPD*%
X325590Y-46160D02*
G54D10*
D03*
X338288Y-58859D02*
G54D10*
D03*
X325588Y-71559D02*
G54D10*
D03*
X392112Y-17462D02*
G54D11*
D03*
X392110Y-42860D02*
G54D11*
D03*
X41850Y-200465D02*
G54D12*
D03*
X16454Y-175061D02*
G54D12*
D03*
X41854Y-149661D02*
G54D12*
D03*
X319090Y-128590D02*
G54D11*
D03*
X68462Y-96956D02*
G54D11*
D03*
X68462Y-71556D02*
G54D11*
D03*
X68460Y-46160D02*
G54D11*
D03*
X68462Y-20756D02*
G54D11*
D03*
G54D13*
X376875Y-177744D02*
X399097Y-177744D01*
X376875Y-164410D01*
X399097Y-164411D01*
G54D13*
X399098Y-156644D02*
X381042Y-156644D01*
X378264Y-154977D01*
X376875Y-151644D01*
X376875Y-148311D01*
X378264Y-144977D01*
X381042Y-143310D01*
X399098Y-143310D01*
G54D13*
X399097Y-135544D02*
X376875Y-118877D01*
G54D13*
X376875Y-135544D02*
X399097Y-118877D01*
G54D14*
X404813Y-184150D02*
X404813Y-114300D01*
X371475Y-114300D01*
X371475Y-184150D01*
X404813Y-184150D01*
X404813Y-214313D01*
X371475Y-214313D01*
X371475Y-184150D01*
G54D14*
X384306Y-193200D02*
X387006Y-194800D01*
X389106Y-196200D01*
X390906Y-200500D01*
X391006Y-203900D01*
X391606Y-205900D01*
X392706Y-206600D01*
X394006Y-206600D01*
X395206Y-206100D01*
X396106Y-204200D01*
X396106Y-202100D01*
X395306Y-200000D01*
X393306Y-198900D01*
X392006Y-197500D01*
X391906Y-195600D01*
X392906Y-194000D01*
X394206Y-193300D01*
X395906Y-193400D01*
X400006Y-196000D01*
X402106Y-200800D01*
X402106Y-205100D01*
X400106Y-210000D01*
X395806Y-212600D01*
X391306Y-212600D01*
X387206Y-210200D01*
X385006Y-205300D01*
X385006Y-202000D01*
X384206Y-200100D01*
X382906Y-199300D01*
X381806Y-199300D01*
X380406Y-200300D01*
X379806Y-202200D01*
X379906Y-204200D01*
X380806Y-206100D01*
X383406Y-207600D01*
X384206Y-209500D01*
X383706Y-211000D01*
X382806Y-212200D01*
X381706Y-212600D01*
X379706Y-212400D01*
X375806Y-209900D01*
X373906Y-205200D01*
X373806Y-200700D01*
X375806Y-196400D01*
X380006Y-193300D01*
X382306Y-193300D01*
X384306Y-193300D01*
G54D14*
X399206Y-185500D02*
X376206Y-185500D01*
X375306Y-185900D01*
X374306Y-186900D01*
X373806Y-188100D01*
X373906Y-189400D01*
X374706Y-190600D01*
X375606Y-191400D01*
X377006Y-191600D01*
X398506Y-191600D01*
X400806Y-191100D01*
X401806Y-190000D01*
X402306Y-188400D01*
X402106Y-188200D01*
X401806Y-187000D01*
X400706Y-185800D01*
X400006Y-185700D01*
G54D14*
X401638Y-185738D02*
X403225Y-185738D01*
X403225Y-190500D01*
X403225Y-212725D01*
X397669Y-212725D01*
X396875Y-213519D01*
X398463Y-213519D01*
X400844Y-211138D01*
X401638Y-211138D01*
X401638Y-208756D01*
X402431Y-207963D01*
X402431Y-198438D01*
X401638Y-197644D01*
X401638Y-191294D01*
X400844Y-191294D01*
X400050Y-192088D01*
X400050Y-194469D01*
X398463Y-192881D01*
X396875Y-192881D01*
X386556Y-192881D01*
X385763Y-192088D01*
X386556Y-192088D01*
X388938Y-194469D01*
X391319Y-194469D01*
X391319Y-195263D01*
X390525Y-196056D01*
X390525Y-197644D01*
X392113Y-199231D01*
X392113Y-203994D01*
X392906Y-204788D01*
X394494Y-204788D01*
X394494Y-201613D01*
X393700Y-200819D01*
X393700Y-203994D01*
G54D14*
X374650Y-185738D02*
X373063Y-185738D01*
X373063Y-212725D01*
X377825Y-212725D01*
X378619Y-213519D01*
X377825Y-213519D01*
X375444Y-211138D01*
X374650Y-211138D01*
X374650Y-209550D01*
X374650Y-207963D01*
X373856Y-207169D01*
X373856Y-196850D01*
X373856Y-192088D01*
X374650Y-192088D01*
X375444Y-192881D01*
X375444Y-194469D01*
X374650Y-195263D01*
X376238Y-195263D01*
X378619Y-192881D01*
X377032Y-192881D01*
G54D14*
X390525Y-212725D02*
X383381Y-212725D01*
X384175Y-212725D01*
X384969Y-211931D01*
X387350Y-211931D01*
X386556Y-211931D01*
X384969Y-210344D01*
X384969Y-207963D01*
X384175Y-207169D01*
X384175Y-202406D01*
X383382Y-201613D01*
X383381Y-205581D01*
X381794Y-205581D01*
X381794Y-201613D01*
X382588Y-200819D01*
G54D14*
X393700Y-201613D02*
X393700Y-200819D01*
X392113Y-199231D01*
X391319Y-199231D01*
X390525Y-198438D01*
X390525Y-195263D01*
X391319Y-194469D01*
G54D14*
X402432Y-191294D02*
X402431Y-193675D01*
X400844Y-195263D01*
G36*
X85725Y-6350D02*
X301625Y-6350D01*
X301625Y-180975D01*
X85725Y-180975D01*
X85725Y-6350D01*
G37*
G54D14*
X85725Y-6350D02*
X301625Y-6350D01*
X301625Y-180975D01*
X85725Y-180975D01*
X85725Y-6350D01*
G36*
X6350Y-6350D02*
X50800Y-6350D01*
X50800Y-133350D01*
X6350Y-133350D01*
X6350Y-6350D01*
G37*
G54D14*
X6350Y-6350D02*
X50800Y-6350D01*
X50800Y-133350D01*
X6350Y-133350D01*
X6350Y-6350D01*
G36*
X47625Y-111125D02*
X88900Y-111125D01*
X88900Y-133350D01*
X47625Y-133350D01*
X47625Y-111125D01*
G37*
G54D14*
X47625Y-111125D02*
X88900Y-111125D01*
X88900Y-133350D01*
X47625Y-133350D01*
X47625Y-111125D01*
G36*
X330200Y-50800D02*
X301625Y-50800D01*
X301625Y-6350D01*
X330200Y-6350D01*
X330200Y-50800D01*
G37*
G54D14*
X330200Y-50800D02*
X301625Y-50800D01*
X301625Y-6350D01*
X330200Y-6350D01*
X330200Y-50800D01*
G36*
X406400Y-31750D02*
X320675Y-31750D01*
X320675Y-47625D01*
X406400Y-47625D01*
X406400Y-31750D01*
G37*
G54D14*
X406400Y-31750D02*
X320675Y-31750D01*
X320675Y-47625D01*
X406400Y-47625D01*
X406400Y-31750D01*
G36*
X330200Y-6350D02*
X377825Y-6350D01*
X377825Y-31750D01*
X330200Y-31750D01*
X330200Y-6350D01*
G37*
G54D14*
X330200Y-6350D02*
X377825Y-6350D01*
X377825Y-31750D01*
X330200Y-31750D01*
X330200Y-6350D01*
G36*
X301625Y-82550D02*
X361950Y-82550D01*
X361950Y-212725D01*
X301625Y-212725D01*
X301625Y-82550D01*
G37*
G54D14*
X301625Y-82550D02*
X361950Y-82550D01*
X361950Y-212725D01*
X301625Y-212725D01*
X301625Y-82550D01*
G36*
X406400Y-31750D02*
X352425Y-31750D01*
X352425Y-107950D01*
X406400Y-107950D01*
X406400Y-31750D01*
G37*
G54D14*
X406400Y-31750D02*
X352425Y-31750D01*
X352425Y-107950D01*
X406400Y-107950D01*
X406400Y-31750D01*
G36*
X301625Y-44450D02*
X314325Y-44450D01*
X314325Y-88900D01*
X301625Y-88900D01*
X301625Y-44450D01*
G37*
G54D14*
X301625Y-44450D02*
X314325Y-44450D01*
X314325Y-88900D01*
X301625Y-88900D01*
X301625Y-44450D01*
G36*
X57150Y-130175D02*
X88900Y-130175D01*
X88900Y-212725D01*
X57150Y-212725D01*
X57150Y-130175D01*
G37*
G54D14*
X57150Y-130175D02*
X88900Y-130175D01*
X88900Y-212725D01*
X57150Y-212725D01*
X57150Y-130175D01*
G36*
X28575Y-184150D02*
X63500Y-184150D01*
X63500Y-212725D01*
X28575Y-212725D01*
X28575Y-184150D01*
G37*
G54D14*
X28575Y-184150D02*
X63500Y-184150D01*
X63500Y-212725D01*
X28575Y-212725D01*
X28575Y-184150D01*
G36*
X44450Y-34925D02*
X92075Y-34925D01*
X92075Y-57150D01*
X44450Y-57150D01*
X44450Y-34925D01*
G37*
G54D14*
X44450Y-34925D02*
X92075Y-34925D01*
X92075Y-57150D01*
X44450Y-57150D01*
X44450Y-34925D01*
M02*
